<svg viewBox="0 0 50 50" xmlns="http://www.w3.org/2000/svg" xmlns:xlink="http://www.w3.org/1999/xlink"><style>:root&gt;svg{display:none}:root&gt;svg:target{display:block}</style><svg fill="none" viewBox="0 -3.5 20 20" id="arrow"><path d="M2 2l8 8 8-8" stroke="#22CBFF" stroke-width="3"/></svg><svg viewBox="-6.46 -6.46 36.92 36.92" id="facebook"><path d="M12 .5a11.5 11.5 0 100 23 11.5 11.5 0 000-23zm2.7 8H13c-.2 0-.4.2-.4.6v1.2h2.1l-.3 1.8h-1.8v5.4h-2V12h-2v-1.8h2v-1c0-1.5 1-2.8 2.4-2.8h1.7v2z"/></svg><svg viewBox="-6.46 -6.46 36.92 36.92" id="instagram"><path d="M15.6 12a3.6 3.6 0 11-7.1-.6H7.2v4.8c0 .3.3.6.6.6h8.4a.6.6 0 00.6-.6v-4.8h-1.3l.1.6zM12 14.4a2.4 2.4 0 100-4.8 2.4 2.4 0 000 4.8zm2.9-5h1.4a.4.4 0 00.4-.3V7.7a.4.4 0 00-.4-.4H15a.4.4 0 00-.4.4V9c0 .2.2.4.4.4zM12 .5a11.5 11.5 0 100 23.1 11.5 11.5 0 000-23zm6 16.3c0 .7-.6 1.3-1.3 1.3H7.3c-.7 0-1.3-.6-1.3-1.3V7.3C6 6.6 6.6 6 7.3 6h9.4c.7 0 1.3.6 1.3 1.3v9.4z"/></svg><svg viewBox="-6.46 -6.46 36.92 36.92" id="youtube"><path d="M14 11.8l-2.8-1.3c-.2 0-.4 0-.4.3v2.4c0 .2.2.4.4.3l2.7-1.3c.3-.1.3-.3 0-.4zM12 .5a11.5 11.5 0 100 23 11.5 11.5 0 000-23zm0 16.2c-5.9 0-6-.6-6-4.7 0-4.1.1-4.7 6-4.7s6 .6 6 4.7c0 4.1-.1 4.7-6 4.7z"/></svg></svg>